<mxfile host="app.diagrams.net" modified="2024-04-19T21:30:11.854Z" agent="Mozilla/5.0 (Windows NT 10.0; Win64; x64) AppleWebKit/537.36 (KHTML, like Gecko) Chrome/124.0.0.0 Safari/537.36" etag="Oxl-3MeqsQpfgAMPk-uF" version="24.0.6" type="device">
  <diagram name="Page-1" id="KJRdYgit8JWi-fb1R5aT">
    <mxGraphModel dx="1050" dy="522" grid="1" gridSize="10" guides="1" tooltips="1" connect="1" arrows="1" fold="1" page="1" pageScale="1" pageWidth="850" pageHeight="1100" math="0" shadow="0">
      <root>
        <mxCell id="0" />
        <mxCell id="1" parent="0" />
        <mxCell id="zMsOSPzyPLm8qp2Yo-B3-2" value="" style="edgeStyle=orthogonalEdgeStyle;rounded=0;orthogonalLoop=1;jettySize=auto;html=1;fillColor=#dae8fc;strokeColor=#6c8ebf;" parent="1" source="Z3v4uQsJSfaoiXQgOx_b-1" target="Z3v4uQsJSfaoiXQgOx_b-4" edge="1">
          <mxGeometry relative="1" as="geometry" />
        </mxCell>
        <mxCell id="Z3v4uQsJSfaoiXQgOx_b-1" value="&lt;font style=&quot;font-size: 14px;&quot;&gt;Read total number&lt;/font&gt;&lt;div style=&quot;font-size: 14px;&quot;&gt;&lt;font style=&quot;font-size: 14px;&quot;&gt;Read selected Object&amp;nbsp;&lt;/font&gt;&lt;/div&gt;" style="shape=parallelogram;perimeter=parallelogramPerimeter;whiteSpace=wrap;html=1;fixedSize=1;align=center;fillColor=#d80073;fontColor=#ffffff;strokeColor=#A50040;" parent="1" vertex="1">
          <mxGeometry x="280" y="100" width="180" height="40" as="geometry" />
        </mxCell>
        <mxCell id="zMsOSPzyPLm8qp2Yo-B3-10" style="edgeStyle=orthogonalEdgeStyle;rounded=0;orthogonalLoop=1;jettySize=auto;html=1;entryX=0.583;entryY=0.95;entryDx=0;entryDy=0;entryPerimeter=0;fillColor=#dae8fc;strokeColor=#6c8ebf;" parent="1" edge="1">
          <mxGeometry relative="1" as="geometry">
            <mxPoint x="609.96" y="150" as="targetPoint" />
            <mxPoint x="440" y="241" as="sourcePoint" />
          </mxGeometry>
        </mxCell>
        <mxCell id="zMsOSPzyPLm8qp2Yo-B3-11" value="No" style="edgeLabel;html=1;align=center;verticalAlign=middle;resizable=0;points=[];" parent="zMsOSPzyPLm8qp2Yo-B3-10" vertex="1" connectable="0">
          <mxGeometry x="-0.3471" y="2" relative="1" as="geometry">
            <mxPoint as="offset" />
          </mxGeometry>
        </mxCell>
        <mxCell id="zMsOSPzyPLm8qp2Yo-B3-14" style="edgeStyle=orthogonalEdgeStyle;rounded=0;orthogonalLoop=1;jettySize=auto;html=1;exitX=0.5;exitY=1;exitDx=0;exitDy=0;fillColor=#dae8fc;strokeColor=#6c8ebf;" parent="1" source="Z3v4uQsJSfaoiXQgOx_b-4" edge="1">
          <mxGeometry relative="1" as="geometry">
            <mxPoint x="370" y="340" as="targetPoint" />
          </mxGeometry>
        </mxCell>
        <mxCell id="zMsOSPzyPLm8qp2Yo-B3-50" value="Yes" style="edgeLabel;html=1;align=center;verticalAlign=middle;resizable=0;points=[];" parent="zMsOSPzyPLm8qp2Yo-B3-14" vertex="1" connectable="0">
          <mxGeometry x="-0.4227" relative="1" as="geometry">
            <mxPoint x="-1" as="offset" />
          </mxGeometry>
        </mxCell>
        <mxCell id="Z3v4uQsJSfaoiXQgOx_b-4" value="&lt;div style=&quot;font-size: 14px;&quot;&gt;&lt;font style=&quot;font-size: 14px;&quot;&gt;total number&lt;/font&gt;&lt;/div&gt;&lt;div style=&quot;font-size: 14px;&quot;&gt;&lt;font style=&quot;font-size: 14px;&quot;&gt;&amp;gt;=&lt;/font&gt;&lt;/div&gt;&lt;div style=&quot;font-size: 14px;&quot;&gt;&lt;font style=&quot;font-size: 14px;&quot;&gt;selected number&lt;/font&gt;&lt;/div&gt;" style="rhombus;whiteSpace=wrap;html=1;align=center;fillColor=#d80073;fontColor=#ffffff;strokeColor=#A50040;" parent="1" vertex="1">
          <mxGeometry x="280" y="180" width="160" height="112" as="geometry" />
        </mxCell>
        <mxCell id="wMWvcQo1reZlgmEU1XPX-5" style="edgeStyle=orthogonalEdgeStyle;rounded=0;orthogonalLoop=1;jettySize=auto;html=1;fillColor=#dae8fc;strokeColor=#6c8ebf;" parent="1" edge="1">
          <mxGeometry relative="1" as="geometry">
            <mxPoint x="365" y="100" as="targetPoint" />
            <mxPoint x="365" y="60" as="sourcePoint" />
          </mxGeometry>
        </mxCell>
        <mxCell id="zMsOSPzyPLm8qp2Yo-B3-13" style="edgeStyle=orthogonalEdgeStyle;rounded=0;orthogonalLoop=1;jettySize=auto;html=1;fillColor=#dae8fc;strokeColor=#6c8ebf;" parent="1" edge="1">
          <mxGeometry relative="1" as="geometry">
            <mxPoint x="366" y="80" as="targetPoint" />
            <mxPoint x="606" y="93" as="sourcePoint" />
            <Array as="points">
              <mxPoint x="606" y="80" />
            </Array>
          </mxGeometry>
        </mxCell>
        <mxCell id="zMsOSPzyPLm8qp2Yo-B3-16" style="edgeStyle=orthogonalEdgeStyle;rounded=0;orthogonalLoop=1;jettySize=auto;html=1;exitX=0.5;exitY=1;exitDx=0;exitDy=0;fillColor=#dae8fc;strokeColor=#6c8ebf;" parent="1" source="zMsOSPzyPLm8qp2Yo-B3-15" edge="1">
          <mxGeometry relative="1" as="geometry">
            <mxPoint x="372" y="450" as="targetPoint" />
          </mxGeometry>
        </mxCell>
        <mxCell id="zMsOSPzyPLm8qp2Yo-B3-15" value="&lt;font style=&quot;font-size: 14px;&quot;&gt;m= square root of&lt;/font&gt;&lt;div style=&quot;font-size: 14px;&quot;&gt;&lt;font style=&quot;font-size: 14px;&quot;&gt;(selected number-1)&lt;/font&gt;&lt;/div&gt;" style="rounded=0;whiteSpace=wrap;html=1;fillColor=#d80073;fontColor=#ffffff;strokeColor=#A50040;" parent="1" vertex="1">
          <mxGeometry x="312" y="341" width="120" height="60" as="geometry" />
        </mxCell>
        <mxCell id="zMsOSPzyPLm8qp2Yo-B3-18" value="&lt;font style=&quot;font-size: 14px;&quot;&gt;&lt;br&gt;print(make sure total&lt;/font&gt;&lt;div style=&quot;font-size: 14px;&quot;&gt;&lt;font style=&quot;font-size: 14px;&quot;&gt;number &amp;gt;= selected&lt;/font&gt;&lt;/div&gt;&lt;div style=&quot;font-size: 14px;&quot;&gt;&lt;font style=&quot;font-size: 14px;&quot;&gt;number&lt;/font&gt;&lt;/div&gt;" style="shape=parallelogram;perimeter=parallelogramPerimeter;whiteSpace=wrap;html=1;fixedSize=1;fillColor=#d80073;fontColor=#ffffff;strokeColor=#A50040;" parent="1" vertex="1">
          <mxGeometry x="540" y="90" width="160" height="60" as="geometry" />
        </mxCell>
        <mxCell id="zMsOSPzyPLm8qp2Yo-B3-20" style="edgeStyle=orthogonalEdgeStyle;rounded=0;orthogonalLoop=1;jettySize=auto;html=1;exitX=0.5;exitY=1;exitDx=0;exitDy=0;fillColor=#dae8fc;strokeColor=#6c8ebf;" parent="1" source="zMsOSPzyPLm8qp2Yo-B3-19" edge="1">
          <mxGeometry relative="1" as="geometry">
            <mxPoint x="377" y="590" as="targetPoint" />
          </mxGeometry>
        </mxCell>
        <mxCell id="zMsOSPzyPLm8qp2Yo-B3-19" value="&lt;font style=&quot;font-size: 14px;&quot;&gt;second factorial=&amp;nbsp;&lt;/font&gt;&lt;div style=&quot;font-size: 14px;&quot;&gt;&lt;font style=&quot;font-size: 14px;&quot;&gt;factorial(total number-&lt;/font&gt;&lt;/div&gt;&lt;div style=&quot;font-size: 14px;&quot;&gt;&lt;font style=&quot;font-size: 14px;&quot;&gt;selected number)&lt;/font&gt;&lt;/div&gt;" style="rounded=0;whiteSpace=wrap;html=1;fillColor=#d80073;fontColor=#ffffff;strokeColor=#A50040;" parent="1" vertex="1">
          <mxGeometry x="317" y="450" width="120" height="90" as="geometry" />
        </mxCell>
        <mxCell id="zMsOSPzyPLm8qp2Yo-B3-23" style="edgeStyle=orthogonalEdgeStyle;rounded=0;orthogonalLoop=1;jettySize=auto;html=1;exitX=0.5;exitY=1;exitDx=0;exitDy=0;fillColor=#dae8fc;strokeColor=#6c8ebf;" parent="1" target="zMsOSPzyPLm8qp2Yo-B3-24" edge="1">
          <mxGeometry relative="1" as="geometry">
            <mxPoint x="377" y="720" as="targetPoint" />
            <mxPoint x="377" y="650" as="sourcePoint" />
          </mxGeometry>
        </mxCell>
        <mxCell id="zMsOSPzyPLm8qp2Yo-B3-21" value="&lt;font style=&quot;font-size: 14px;&quot;&gt;Permutation= factorial( total number)*m/ second factorial&lt;/font&gt;" style="rounded=0;whiteSpace=wrap;html=1;fillColor=#d80073;fontColor=#ffffff;strokeColor=#A50040;" parent="1" vertex="1">
          <mxGeometry x="196" y="590" width="380" height="60" as="geometry" />
        </mxCell>
        <mxCell id="zMsOSPzyPLm8qp2Yo-B3-26" style="edgeStyle=orthogonalEdgeStyle;rounded=0;orthogonalLoop=1;jettySize=auto;html=1;exitX=0.5;exitY=1;exitDx=0;exitDy=0;entryX=0.5;entryY=0;entryDx=0;entryDy=0;fillColor=#dae8fc;strokeColor=#6c8ebf;" parent="1" source="zMsOSPzyPLm8qp2Yo-B3-24" target="zMsOSPzyPLm8qp2Yo-B3-25" edge="1">
          <mxGeometry relative="1" as="geometry" />
        </mxCell>
        <mxCell id="zMsOSPzyPLm8qp2Yo-B3-24" value="&lt;font style=&quot;font-size: 14px;&quot;&gt;print(permutation)&lt;/font&gt;" style="shape=parallelogram;perimeter=parallelogramPerimeter;whiteSpace=wrap;html=1;fixedSize=1;fillColor=#d80073;fontColor=#ffffff;strokeColor=#A50040;" parent="1" vertex="1">
          <mxGeometry x="311" y="690" width="133" height="60" as="geometry" />
        </mxCell>
        <mxCell id="zMsOSPzyPLm8qp2Yo-B3-25" value="END" style="ellipse;whiteSpace=wrap;html=1;fillColor=#d80073;fontColor=#ffffff;strokeColor=#A50040;" parent="1" vertex="1">
          <mxGeometry x="317" y="835" width="120" height="50" as="geometry" />
        </mxCell>
        <mxCell id="zMsOSPzyPLm8qp2Yo-B3-27" value="START" style="ellipse;whiteSpace=wrap;html=1;fillColor=#d80073;fontColor=#ffffff;strokeColor=#A50040;" parent="1" vertex="1">
          <mxGeometry x="304" y="20" width="120" height="40" as="geometry" />
        </mxCell>
        <mxCell id="zMsOSPzyPLm8qp2Yo-B3-30" value="" style="edgeStyle=orthogonalEdgeStyle;rounded=0;orthogonalLoop=1;jettySize=auto;html=1;fillColor=#dae8fc;strokeColor=#6c8ebf;" parent="1" source="zMsOSPzyPLm8qp2Yo-B3-28" target="zMsOSPzyPLm8qp2Yo-B3-29" edge="1">
          <mxGeometry relative="1" as="geometry" />
        </mxCell>
        <mxCell id="zMsOSPzyPLm8qp2Yo-B3-28" value="&lt;font style=&quot;font-size: 14px;&quot;&gt;Factorial(n)&lt;/font&gt;" style="ellipse;whiteSpace=wrap;html=1;fillColor=#d80073;fontColor=#ffffff;strokeColor=#A50040;" parent="1" vertex="1">
          <mxGeometry x="650" y="290" width="120" height="40" as="geometry" />
        </mxCell>
        <mxCell id="zMsOSPzyPLm8qp2Yo-B3-34" value="" style="edgeStyle=orthogonalEdgeStyle;rounded=0;orthogonalLoop=1;jettySize=auto;html=1;fillColor=#dae8fc;strokeColor=#6c8ebf;" parent="1" source="zMsOSPzyPLm8qp2Yo-B3-29" target="zMsOSPzyPLm8qp2Yo-B3-33" edge="1">
          <mxGeometry relative="1" as="geometry" />
        </mxCell>
        <mxCell id="zMsOSPzyPLm8qp2Yo-B3-29" value="&lt;font style=&quot;font-size: 14px;&quot;&gt;p=1,k=1&lt;/font&gt;" style="whiteSpace=wrap;html=1;fillColor=#d80073;fontColor=#ffffff;strokeColor=#A50040;" parent="1" vertex="1">
          <mxGeometry x="650" y="380" width="120" height="30" as="geometry" />
        </mxCell>
        <mxCell id="zMsOSPzyPLm8qp2Yo-B3-39" style="edgeStyle=orthogonalEdgeStyle;rounded=0;orthogonalLoop=1;jettySize=auto;html=1;exitX=0.5;exitY=1;exitDx=0;exitDy=0;fillColor=#dae8fc;strokeColor=#6c8ebf;" parent="1" source="zMsOSPzyPLm8qp2Yo-B3-33" target="zMsOSPzyPLm8qp2Yo-B3-40" edge="1">
          <mxGeometry relative="1" as="geometry">
            <mxPoint x="710" y="560" as="targetPoint" />
          </mxGeometry>
        </mxCell>
        <mxCell id="zMsOSPzyPLm8qp2Yo-B3-41" value="Yes" style="edgeLabel;html=1;align=center;verticalAlign=middle;resizable=0;points=[];" parent="zMsOSPzyPLm8qp2Yo-B3-39" vertex="1" connectable="0">
          <mxGeometry x="-0.35" y="1" relative="1" as="geometry">
            <mxPoint as="offset" />
          </mxGeometry>
        </mxCell>
        <mxCell id="zMsOSPzyPLm8qp2Yo-B3-47" style="edgeStyle=orthogonalEdgeStyle;rounded=0;orthogonalLoop=1;jettySize=auto;html=1;exitX=1;exitY=0.5;exitDx=0;exitDy=0;fillColor=#dae8fc;strokeColor=#6c8ebf;" parent="1" source="zMsOSPzyPLm8qp2Yo-B3-33" target="zMsOSPzyPLm8qp2Yo-B3-48" edge="1">
          <mxGeometry relative="1" as="geometry">
            <mxPoint x="810" y="630" as="targetPoint" />
          </mxGeometry>
        </mxCell>
        <mxCell id="zMsOSPzyPLm8qp2Yo-B3-53" value="No" style="edgeLabel;html=1;align=center;verticalAlign=middle;resizable=0;points=[];" parent="zMsOSPzyPLm8qp2Yo-B3-47" vertex="1" connectable="0">
          <mxGeometry x="-0.5571" y="3" relative="1" as="geometry">
            <mxPoint y="1" as="offset" />
          </mxGeometry>
        </mxCell>
        <mxCell id="zMsOSPzyPLm8qp2Yo-B3-33" value="&lt;font style=&quot;font-size: 14px;&quot;&gt;K=&amp;lt; n+1&lt;/font&gt;" style="rhombus;whiteSpace=wrap;html=1;fillColor=#d80073;fontColor=#ffffff;strokeColor=#A50040;" parent="1" vertex="1">
          <mxGeometry x="670" y="465" width="80" height="55" as="geometry" />
        </mxCell>
        <mxCell id="zMsOSPzyPLm8qp2Yo-B3-44" style="edgeStyle=orthogonalEdgeStyle;rounded=0;orthogonalLoop=1;jettySize=auto;html=1;fillColor=#dae8fc;strokeColor=#6c8ebf;" parent="1" edge="1">
          <mxGeometry relative="1" as="geometry">
            <mxPoint x="710" y="430" as="targetPoint" />
            <mxPoint x="666" y="580" as="sourcePoint" />
            <Array as="points">
              <mxPoint x="580" y="580" />
              <mxPoint x="580" y="430" />
            </Array>
          </mxGeometry>
        </mxCell>
        <mxCell id="zMsOSPzyPLm8qp2Yo-B3-40" value="&lt;font style=&quot;font-size: 14px;&quot;&gt;p*=n&lt;/font&gt;" style="rounded=0;whiteSpace=wrap;html=1;fillColor=#d80073;fontColor=#ffffff;strokeColor=#A50040;" parent="1" vertex="1">
          <mxGeometry x="665" y="565" width="90" height="41" as="geometry" />
        </mxCell>
        <mxCell id="zMsOSPzyPLm8qp2Yo-B3-48" value="&lt;font style=&quot;font-size: 14px;&quot;&gt;return P&lt;/font&gt;" style="ellipse;whiteSpace=wrap;html=1;fillColor=#d80073;fontColor=#ffffff;strokeColor=#A50040;" parent="1" vertex="1">
          <mxGeometry x="780" y="590" width="90" height="50" as="geometry" />
        </mxCell>
      </root>
    </mxGraphModel>
  </diagram>
</mxfile>
